<mxfile host="app.diagrams.net" modified="2021-05-18T09:42:27.946Z" agent="5.0 (Macintosh; Intel Mac OS X 10_15_7) AppleWebKit/537.36 (KHTML, like Gecko) Chrome/90.0.4430.212 Safari/537.36" etag="blOgaXkNyraXkXDRyGVv" version="14.6.12" type="github">
  <diagram id="hJSY4IWrLL6NvOeGapXp" name="第 1 页">
    <mxGraphModel dx="1127" dy="771" grid="1" gridSize="10" guides="1" tooltips="1" connect="1" arrows="1" fold="1" page="1" pageScale="1" pageWidth="827" pageHeight="1169" math="0" shadow="0">
      <root>
        <mxCell id="0" />
        <mxCell id="1" parent="0" />
        <mxCell id="-VVtabqYpNL4-X2GSctc-1" value="&lt;span style=&quot;font-size: 18px&quot;&gt;门店、区域权限&lt;/span&gt;" style="text;html=1;align=center;verticalAlign=middle;resizable=0;points=[];autosize=1;strokeColor=none;" vertex="1" parent="1">
          <mxGeometry x="70" y="90" width="140" height="20" as="geometry" />
        </mxCell>
      </root>
    </mxGraphModel>
  </diagram>
</mxfile>
